<svg width="57" height="50" viewBox="0 0 57 50" fill="none" xmlns="http://www.w3.org/2000/svg">
<path d="M34.2 46.875C34.2 48.0176 34.4761 49.082 34.9659 50H34.9125C32.9442 50 31.35 48.252 31.35 46.0938V37.5C31.35 35.7715 30.0764 34.375 28.5 34.375H22.8C21.2236 34.375 19.95 35.7715 19.95 37.5V46.0938C19.95 48.252 18.3558 50 16.3875 50H11.4089C11.2753 50 11.1417 49.9902 11.0081 49.9805C10.9012 49.9902 10.7944 50 10.6875 50H9.2625C7.29511 50 5.7 48.252 5.7 46.0938V35.1562C5.7 35.0684 5.70267 34.9707 5.70801 34.8828V28.0859H2.85445C1.24866 28.0859 0 26.709 0 24.9512C0 24.0723 0.267544 23.291 0.891516 22.6074L23.7262 0.782812C24.3497 0.0978515 25.0622 0 25.6856 0C26.3091 0 27.0216 0.195703 27.5648 0.684961L43.703 16.2402C39.8288 17.7441 37.05 21.7969 37.05 26.5625V28.9648C35.3489 30.0391 34.2 32.0605 34.2 34.375V46.875ZM47.025 18.75C50.9616 18.75 54.15 22.2461 54.15 26.5625V31.25C55.7264 31.25 57 32.6465 57 34.375V46.875C57 48.6035 55.7264 50 54.15 50H39.9C38.3236 50 37.05 48.6035 37.05 46.875V34.375C37.05 32.6465 38.3236 31.25 39.9 31.25V26.5625C39.9 22.2461 43.0884 18.75 47.025 18.75ZM47.025 23.4375C45.4486 23.4375 44.175 24.834 44.175 26.5625V31.25H49.875V26.5625C49.875 24.834 48.6014 23.4375 47.025 23.4375Z" fill="black"/>
</svg>
