<svg width="162" height="48" viewBox="0 0 162 48" fill="none" xmlns="http://www.w3.org/2000/svg">
<path d="M17.304 18.126L9.954 37.74H4.41L17.346 8.13L30.24 37.74H24.696L17.304 18.126ZM28.266 39H6.384V43.62H1.68V34.548H32.97V43.62H28.266V39ZM40.4378 24.3C40.4378 26.316 40.8578 28.122 41.6978 29.718C42.5658 31.286 43.7558 32.518 45.2678 33.414C46.7798 34.31 48.5018 34.758 50.4338 34.758C52.3938 34.758 54.1158 34.31 55.5998 33.414C57.1118 32.518 58.2878 31.286 59.1278 29.718C59.9958 28.122 60.4298 26.316 60.4298 24.3C60.4298 22.284 60.0098 20.492 59.1698 18.924C58.3298 17.328 57.1538 16.082 55.6418 15.186C54.1578 14.29 52.4218 13.842 50.4338 13.842C48.5018 13.842 46.7798 14.29 45.2678 15.186C43.7558 16.082 42.5658 17.328 41.6978 18.924C40.8578 20.492 40.4378 22.284 40.4378 24.3ZM35.1878 24.3C35.1878 22.088 35.5658 20.058 36.3218 18.21C37.0778 16.362 38.1418 14.766 39.5138 13.422C40.9138 12.05 42.5378 10.986 44.3858 10.23C46.2618 9.474 48.2778 9.096 50.4338 9.096C52.6458 9.096 54.6758 9.474 56.5238 10.23C58.3718 10.986 59.9818 12.05 61.3538 13.422C62.7538 14.766 63.8318 16.362 64.5878 18.21C65.3438 20.058 65.7218 22.088 65.7218 24.3C65.7218 26.484 65.3438 28.514 64.5878 30.39C63.8318 32.266 62.7678 33.89 61.3958 35.262C60.0238 36.634 58.3998 37.712 56.5238 38.496C54.6758 39.252 52.6458 39.63 50.4338 39.63C48.2498 39.63 46.2198 39.252 44.3438 38.496C42.4678 37.712 40.8438 36.634 39.4718 35.262C38.1278 33.89 37.0778 32.266 36.3218 30.39C35.5658 28.514 35.1878 26.484 35.1878 24.3ZM76.0016 21.108L73.9856 39H68.8616L72.8936 8.13L84.9476 28.08L97.0436 8.13L101.076 39H95.9516L93.8936 21.108L84.9476 36.27L76.0016 21.108ZM132.021 14.934L105.897 40.47L106.107 33.666L132.231 8.13L132.021 14.934ZM110.769 9.6V34.926L105.897 40.47V9.6H110.769ZM132.231 8.13V39H127.359V13.8L132.231 8.13ZM138.751 9.6H143.833V39H138.751V9.6ZM154.753 9.6H160.717L148.327 23.376L161.347 39H155.257L142.321 23.502L154.753 9.6Z" fill="#333333"/>
</svg>
