<svg width="162" height="66" viewBox="0 0 162 66" fill="none" xmlns="http://www.w3.org/2000/svg">
<path d="M17.304 18.126L9.954 37.74H4.41L17.346 8.13L30.24 37.74H24.696L17.304 18.126ZM28.266 39H6.384V43.62H1.68V34.548H32.97V43.62H28.266V39ZM40.4378 24.3C40.4378 26.316 40.8578 28.122 41.6978 29.718C42.5658 31.286 43.7558 32.518 45.2678 33.414C46.7798 34.31 48.5018 34.758 50.4338 34.758C52.3938 34.758 54.1158 34.31 55.5998 33.414C57.1118 32.518 58.2878 31.286 59.1278 29.718C59.9958 28.122 60.4298 26.316 60.4298 24.3C60.4298 22.284 60.0098 20.492 59.1698 18.924C58.3298 17.328 57.1538 16.082 55.6418 15.186C54.1578 14.29 52.4218 13.842 50.4338 13.842C48.5018 13.842 46.7798 14.29 45.2678 15.186C43.7558 16.082 42.5658 17.328 41.6978 18.924C40.8578 20.492 40.4378 22.284 40.4378 24.3ZM35.1878 24.3C35.1878 22.088 35.5658 20.058 36.3218 18.21C37.0778 16.362 38.1418 14.766 39.5138 13.422C40.9138 12.05 42.5378 10.986 44.3858 10.23C46.2618 9.474 48.2778 9.096 50.4338 9.096C52.6458 9.096 54.6758 9.474 56.5238 10.23C58.3718 10.986 59.9818 12.05 61.3538 13.422C62.7538 14.766 63.8318 16.362 64.5878 18.21C65.3438 20.058 65.7218 22.088 65.7218 24.3C65.7218 26.484 65.3438 28.514 64.5878 30.39C63.8318 32.266 62.7678 33.89 61.3958 35.262C60.0238 36.634 58.3998 37.712 56.5238 38.496C54.6758 39.252 52.6458 39.63 50.4338 39.63C48.2498 39.63 46.2198 39.252 44.3438 38.496C42.4678 37.712 40.8438 36.634 39.4718 35.262C38.1278 33.89 37.0778 32.266 36.3218 30.39C35.5658 28.514 35.1878 26.484 35.1878 24.3ZM76.0016 21.108L73.9856 39H68.8616L72.8936 8.13L84.9476 28.08L97.0436 8.13L101.076 39H95.9516L93.8936 21.108L84.9476 36.27L76.0016 21.108ZM132.021 14.934L105.897 40.47L106.107 33.666L132.231 8.13L132.021 14.934ZM110.769 9.6V34.926L105.897 40.47V9.6H110.769ZM132.231 8.13V39H127.359V13.8L132.231 8.13ZM138.751 9.6H143.833V39H138.751V9.6ZM154.753 9.6H160.717L148.327 23.376L161.347 39H155.257L142.321 23.502L154.753 9.6Z" fill="#333333"/>
<path d="M9.55 57.492L7.66 61.58H6.4L9.55 55.07L12.7 61.58H11.44L9.55 57.492ZM12.42 62H6.75V63.26H5.56V60.95H13.54V63.26H12.42V62ZM20.8658 55.56V62H19.7458V56.61H16.4558V59.76C16.4558 60.264 16.3765 60.684 16.2178 61.02C16.0685 61.3467 15.8352 61.594 15.5178 61.762C15.2005 61.9207 14.7992 62 14.3138 62V60.978C14.5938 60.978 14.8318 60.8893 15.0278 60.712C15.2332 60.5347 15.3358 60.2173 15.3358 59.76V55.56H20.8658ZM23.9545 62H22.7225L25.1025 58.64H26.3345L23.9545 62ZM28.0425 62H26.9225V55.56H28.0425V62ZM27.3845 58.444V59.424H25.3825C24.9438 59.424 24.5425 59.3587 24.1785 59.228C23.8238 59.0973 23.5438 58.892 23.3385 58.612C23.1331 58.3227 23.0305 57.9493 23.0305 57.492C23.0305 57.0253 23.1331 56.652 23.3385 56.372C23.5438 56.092 23.8238 55.8867 24.1785 55.756C24.5425 55.6253 24.9438 55.56 25.3825 55.56H27.3845V56.54H25.3825C25.1118 56.54 24.8831 56.5773 24.6965 56.652C24.5191 56.7173 24.3838 56.82 24.2905 56.96C24.1971 57.1 24.1505 57.2773 24.1505 57.492C24.1505 57.7067 24.1971 57.884 24.2905 58.024C24.3838 58.164 24.5191 58.2713 24.6965 58.346C24.8831 58.4113 25.1118 58.444 25.3825 58.444H27.3845ZM36.7673 56.47V55.42C37.402 55.42 37.9666 55.5647 38.4613 55.854C38.9653 56.1433 39.362 56.54 39.6513 57.044C39.95 57.548 40.0993 58.1267 40.0993 58.78C40.0993 59.424 39.95 60.0027 39.6513 60.516C39.362 61.02 38.9653 61.4167 38.4613 61.706C37.9666 61.9953 37.402 62.14 36.7673 62.14C36.142 62.14 35.5773 61.986 35.0733 61.678C34.5693 61.3607 34.168 60.8893 33.8693 60.264C33.58 59.6387 33.4353 58.864 33.4353 57.94L34.5553 58.78C34.5553 59.228 34.6533 59.6247 34.8493 59.97C35.0453 60.3153 35.3066 60.5907 35.6333 60.796C35.9693 60.992 36.3473 61.09 36.7673 61.09C37.1873 61.09 37.5606 60.992 37.8873 60.796C38.2233 60.5907 38.4846 60.3153 38.6713 59.97C38.8673 59.6247 38.9653 59.228 38.9653 58.78C38.9653 58.332 38.8673 57.9353 38.6713 57.59C38.4846 57.2353 38.2233 56.96 37.8873 56.764C37.5606 56.568 37.1873 56.47 36.7673 56.47ZM34.0513 58.78C34.0513 58.2573 34.1166 57.7907 34.2473 57.38C34.378 56.96 34.5646 56.6053 34.8073 56.316C35.05 56.0267 35.3346 55.8073 35.6613 55.658C35.9973 55.4993 36.366 55.42 36.7673 55.42V56.47C36.5246 56.47 36.2726 56.5213 36.0113 56.624C35.75 56.7267 35.5073 56.876 35.2833 57.072C35.0686 57.268 34.8913 57.5107 34.7513 57.8C34.6206 58.08 34.5553 58.4067 34.5553 58.78H34.0513ZM33.4353 57.94C33.4353 57.0627 33.5193 56.288 33.6873 55.616C33.8553 54.944 34.1493 54.3747 34.5693 53.908C34.9986 53.432 35.5866 53.068 36.3333 52.816C36.968 52.6013 37.4393 52.3447 37.7473 52.046C38.0646 51.738 38.256 51.416 38.3213 51.08H39.4273C39.3806 51.4907 39.2313 51.8687 38.9793 52.214C38.7273 52.55 38.396 52.844 37.9853 53.096C37.584 53.348 37.1266 53.558 36.6133 53.726C36.0346 53.9127 35.582 54.1927 35.2553 54.566C34.938 54.9393 34.7186 55.364 34.5973 55.84C34.476 56.3067 34.4153 56.7733 34.4153 57.24V58.682L33.4353 57.94ZM41.7919 59.06V58.108H46.0899C46.0526 57.772 45.9592 57.478 45.8099 57.226C45.6699 56.9647 45.4692 56.764 45.2079 56.624C44.9559 56.4747 44.6432 56.4 44.2699 56.4C43.8966 56.4 43.5559 56.4793 43.2479 56.638C42.9399 56.7967 42.6926 57.0253 42.5059 57.324C42.3286 57.6133 42.2399 57.9587 42.2399 58.36L42.2119 58.78C42.2119 59.2747 42.2959 59.6947 42.4639 60.04C42.6319 60.3853 42.8699 60.6467 43.1779 60.824C43.4859 61.0013 43.8499 61.09 44.2699 61.09C44.5872 61.09 44.8672 61.0433 45.1099 60.95C45.3619 60.8473 45.5859 60.712 45.7819 60.544C45.9779 60.3667 46.1459 60.1613 46.2859 59.928L47.1959 60.502C46.9812 60.8287 46.7432 61.118 46.4819 61.37C46.2206 61.6127 45.9032 61.804 45.5299 61.944C45.1566 62.0747 44.6899 62.14 44.1299 62.14C43.5512 62.14 43.0286 61.9953 42.5619 61.706C42.1046 61.4167 41.7406 61.02 41.4699 60.516C41.2086 60.0027 41.0779 59.424 41.0779 58.78C41.0779 58.6587 41.0826 58.542 41.0919 58.43C41.1012 58.318 41.1152 58.206 41.1339 58.094C41.2272 57.562 41.4139 57.0953 41.6939 56.694C41.9739 56.2927 42.3332 55.98 42.7719 55.756C43.2199 55.532 43.7192 55.42 44.2699 55.42C44.8766 55.42 45.4086 55.5553 45.8659 55.826C46.3232 56.0967 46.6779 56.4793 46.9299 56.974C47.1819 57.4593 47.3079 58.0427 47.3079 58.724C47.3079 58.78 47.3079 58.836 47.3079 58.892C47.3079 58.948 47.3032 59.004 47.2939 59.06H41.7919ZM51.125 58.78V58.08C51.5543 58.08 51.8623 58.0007 52.049 57.842C52.2356 57.674 52.329 57.4733 52.329 57.24C52.329 56.988 52.2356 56.792 52.049 56.652C51.8623 56.5027 51.601 56.428 51.265 56.428C50.985 56.428 50.7516 56.484 50.565 56.596C50.3876 56.6987 50.257 56.8293 50.173 56.988C50.089 57.1373 50.047 57.2867 50.047 57.436H48.913C48.913 57.072 49.0156 56.736 49.221 56.428C49.4263 56.12 49.7063 55.8773 50.061 55.7C50.4156 55.5133 50.817 55.42 51.265 55.42C51.685 55.42 52.063 55.4993 52.399 55.658C52.735 55.8167 52.9963 56.0267 53.183 56.288C53.379 56.5493 53.477 56.8387 53.477 57.156C53.477 57.6227 53.267 58.01 52.847 58.318C52.4363 58.626 51.8623 58.78 51.125 58.78ZM51.237 62.14C50.481 62.14 49.8743 61.9347 49.417 61.524C48.969 61.1133 48.7076 60.5953 48.633 59.97H49.767C49.8323 60.278 49.9723 60.5533 50.187 60.796C50.4016 61.0387 50.7516 61.16 51.237 61.16C51.5356 61.16 51.7876 61.118 51.993 61.034C52.2076 60.95 52.371 60.8287 52.483 60.67C52.595 60.5113 52.651 60.3293 52.651 60.124C52.651 59.9 52.5903 59.7087 52.469 59.55C52.357 59.3913 52.1843 59.27 51.951 59.186C51.727 59.102 51.4516 59.06 51.125 59.06V58.36C51.9276 58.36 52.567 58.5 53.043 58.78C53.519 59.06 53.757 59.5033 53.757 60.11C53.757 60.53 53.6403 60.894 53.407 61.202C53.183 61.5007 52.8796 61.734 52.497 61.902C52.1143 62.0607 51.6943 62.14 51.237 62.14ZM58.9328 57.492L57.0428 61.58H55.7828L58.9328 55.07L62.0828 61.58H60.8228L58.9328 57.492ZM61.8028 62H56.1328V63.26H54.9428V60.95H62.9228V63.26H61.8028V62ZM64.0466 58.78C64.0466 58.1267 64.1913 57.548 64.4806 57.044C64.7793 56.54 65.1806 56.1433 65.6846 55.854C66.1886 55.5647 66.7533 55.42 67.3786 55.42C68.0133 55.42 68.578 55.5647 69.0726 55.854C69.5766 56.1433 69.9733 56.54 70.2626 57.044C70.5613 57.548 70.7106 58.1267 70.7106 58.78C70.7106 59.424 70.5613 60.0027 70.2626 60.516C69.9733 61.02 69.5766 61.4167 69.0726 61.706C68.578 61.9953 68.0133 62.14 67.3786 62.14C66.7533 62.14 66.1886 61.9953 65.6846 61.706C65.1806 61.4167 64.7793 61.02 64.4806 60.516C64.1913 60.0027 64.0466 59.424 64.0466 58.78ZM65.1806 58.78C65.1806 59.228 65.274 59.6247 65.4606 59.97C65.6566 60.3153 65.918 60.5907 66.2446 60.796C66.5806 60.992 66.9586 61.09 67.3786 61.09C67.7986 61.09 68.172 60.992 68.4986 60.796C68.8346 60.5907 69.096 60.3153 69.2826 59.97C69.4786 59.6247 69.5766 59.228 69.5766 58.78C69.5766 58.332 69.4786 57.9353 69.2826 57.59C69.096 57.2353 68.8346 56.96 68.4986 56.764C68.172 56.568 67.7986 56.47 67.3786 56.47C66.9586 56.47 66.5806 56.568 66.2446 56.764C65.918 56.96 65.6566 57.2353 65.4606 57.59C65.274 57.9353 65.1806 58.332 65.1806 58.78ZM78.3672 62L77.3172 56.89L77.9472 55.07L79.6272 62H78.3672ZM75.0072 61.034L77.9472 55.07L78.0872 57.31L75.4272 62.434L75.0072 61.034ZM75.4272 62.434L72.8092 57.31L72.9492 55.07L75.8472 61.034L75.4272 62.434ZM71.2692 62L72.9492 55.07L73.5792 56.89L72.5292 62H71.2692ZM81.4111 59.13V58.08H86.1711V59.13H81.4111ZM85.4431 55.56H86.5631V62H85.4431V55.56ZM80.7531 55.56H81.8731V62H80.7531V55.56ZM94.4791 55.56H95.5991V62H94.4791V55.56ZM88.6691 55.56H89.7891V62H88.6691V55.56ZM89.3271 58.976V57.996H91.3291C91.9918 57.996 92.5471 58.1593 92.9951 58.486C93.4525 58.8033 93.6811 59.3073 93.6811 59.998C93.6811 60.4553 93.5785 60.8333 93.3731 61.132C93.1678 61.4307 92.8878 61.65 92.5331 61.79C92.1785 61.93 91.7771 62 91.3291 62H89.3271V61.02H91.3291C91.5998 61.02 91.8238 60.9827 92.0011 60.908C92.1878 60.824 92.3278 60.7073 92.4211 60.558C92.5145 60.3993 92.5611 60.2127 92.5611 59.998C92.5611 59.6713 92.4585 59.4193 92.2531 59.242C92.0478 59.0647 91.7398 58.976 91.3291 58.976H89.3271ZM101.123 55.56H102.383L100.185 58.682L102.523 62H101.263L99.5826 59.564L97.9026 62H96.6426L98.9806 58.682L96.7826 55.56H98.0426L99.5826 57.8L101.123 55.56ZM113.019 55.56V62H111.899V56.61H108.889V62H107.769V55.56H113.019ZM114.564 58.78C114.564 58.1267 114.709 57.548 114.998 57.044C115.297 56.54 115.698 56.1433 116.202 55.854C116.706 55.5647 117.271 55.42 117.896 55.42C118.531 55.42 119.096 55.5647 119.59 55.854C120.094 56.1433 120.491 56.54 120.78 57.044C121.079 57.548 121.228 58.1267 121.228 58.78C121.228 59.424 121.079 60.0027 120.78 60.516C120.491 61.02 120.094 61.4167 119.59 61.706C119.096 61.9953 118.531 62.14 117.896 62.14C117.271 62.14 116.706 61.9953 116.202 61.706C115.698 61.4167 115.297 61.02 114.998 60.516C114.709 60.0027 114.564 59.424 114.564 58.78ZM115.698 58.78C115.698 59.228 115.792 59.6247 115.978 59.97C116.174 60.3153 116.436 60.5907 116.762 60.796C117.098 60.992 117.476 61.09 117.896 61.09C118.316 61.09 118.69 60.992 119.016 60.796C119.352 60.5907 119.614 60.3153 119.8 59.97C119.996 59.6247 120.094 59.228 120.094 58.78C120.094 58.332 119.996 57.9353 119.8 57.59C119.614 57.2353 119.352 56.96 119.016 56.764C118.69 56.568 118.316 56.47 117.896 56.47C117.476 56.47 117.098 56.568 116.762 56.764C116.436 56.96 116.174 57.2353 115.978 57.59C115.792 57.9353 115.698 58.332 115.698 58.78ZM123.817 65.08H122.697V55.56H123.817V65.08ZM129.207 58.78C129.207 59.4707 129.062 60.068 128.773 60.572C128.483 61.076 128.096 61.4633 127.611 61.734C127.135 62.0047 126.603 62.14 126.015 62.14C125.483 62.14 125.011 62.0047 124.601 61.734C124.199 61.4633 123.882 61.076 123.649 60.572C123.425 60.068 123.313 59.4707 123.313 58.78C123.313 58.08 123.425 57.4827 123.649 56.988C123.882 56.484 124.199 56.0967 124.601 55.826C125.011 55.5553 125.483 55.42 126.015 55.42C126.603 55.42 127.135 55.5553 127.611 55.826C128.096 56.0967 128.483 56.484 128.773 56.988C129.062 57.4827 129.207 58.08 129.207 58.78ZM128.073 58.78C128.073 58.2853 127.97 57.8653 127.765 57.52C127.569 57.1747 127.303 56.9133 126.967 56.736C126.64 56.5587 126.276 56.47 125.875 56.47C125.548 56.47 125.226 56.5587 124.909 56.736C124.591 56.9133 124.33 57.1747 124.125 57.52C123.919 57.8653 123.817 58.2853 123.817 58.78C123.817 59.2747 123.919 59.6947 124.125 60.04C124.33 60.3853 124.591 60.6467 124.909 60.824C125.226 61.0013 125.548 61.09 125.875 61.09C126.276 61.09 126.64 61.0013 126.967 60.824C127.303 60.6467 127.569 60.3853 127.765 60.04C127.97 59.6947 128.073 59.2747 128.073 58.78ZM130.191 58.78C130.191 58.1267 130.336 57.548 130.625 57.044C130.924 56.54 131.325 56.1433 131.829 55.854C132.333 55.5647 132.898 55.42 133.523 55.42C134.158 55.42 134.723 55.5647 135.217 55.854C135.721 56.1433 136.118 56.54 136.407 57.044C136.706 57.548 136.855 58.1267 136.855 58.78C136.855 59.424 136.706 60.0027 136.407 60.516C136.118 61.02 135.721 61.4167 135.217 61.706C134.723 61.9953 134.158 62.14 133.523 62.14C132.898 62.14 132.333 61.9953 131.829 61.706C131.325 61.4167 130.924 61.02 130.625 60.516C130.336 60.0027 130.191 59.424 130.191 58.78ZM131.325 58.78C131.325 59.228 131.419 59.6247 131.605 59.97C131.801 60.3153 132.063 60.5907 132.389 60.796C132.725 60.992 133.103 61.09 133.523 61.09C133.943 61.09 134.317 60.992 134.643 60.796C134.979 60.5907 135.241 60.3153 135.427 59.97C135.623 59.6247 135.721 59.228 135.721 58.78C135.721 58.332 135.623 57.9353 135.427 57.59C135.241 57.2353 134.979 56.96 134.643 56.764C134.317 56.568 133.943 56.47 133.523 56.47C133.103 56.47 132.725 56.568 132.389 56.764C132.063 56.96 131.801 57.2353 131.605 57.59C131.419 57.9353 131.325 58.332 131.325 58.78ZM138.898 58.78C138.898 59.228 138.991 59.6247 139.178 59.97C139.374 60.3153 139.635 60.5907 139.962 60.796C140.298 60.992 140.676 61.09 141.096 61.09C141.441 61.09 141.763 61.0387 142.062 60.936C142.37 60.824 142.636 60.6793 142.86 60.502C143.084 60.3153 143.242 60.1193 143.336 59.914V61.314C143.112 61.5753 142.79 61.7807 142.37 61.93C141.959 62.07 141.534 62.14 141.096 62.14C140.47 62.14 139.906 61.9953 139.402 61.706C138.898 61.4167 138.496 61.02 138.198 60.516C137.908 60.0027 137.764 59.424 137.764 58.78C137.764 58.1267 137.908 57.548 138.198 57.044C138.496 56.54 138.898 56.1433 139.402 55.854C139.906 55.5647 140.47 55.42 141.096 55.42C141.534 55.42 141.959 55.4947 142.37 55.644C142.79 55.784 143.112 55.9847 143.336 56.246V57.646C143.242 57.4313 143.084 57.2353 142.86 57.058C142.636 56.8807 142.37 56.7407 142.062 56.638C141.763 56.526 141.441 56.47 141.096 56.47C140.676 56.47 140.298 56.568 139.962 56.764C139.635 56.96 139.374 57.2353 139.178 57.59C138.991 57.9353 138.898 58.332 138.898 58.78ZM146.003 62H144.771L147.151 58.64H148.383L146.003 62ZM150.091 62H148.971V55.56H150.091V62ZM149.433 58.444V59.424H147.431C146.993 59.424 146.591 59.3587 146.227 59.228C145.873 59.0973 145.593 58.892 145.387 58.612C145.182 58.3227 145.079 57.9493 145.079 57.492C145.079 57.0253 145.182 56.652 145.387 56.372C145.593 56.092 145.873 55.8867 146.227 55.756C146.591 55.6253 146.993 55.56 147.431 55.56H149.433V56.54H147.431C147.161 56.54 146.932 56.5773 146.745 56.652C146.568 56.7173 146.433 56.82 146.339 56.96C146.246 57.1 146.199 57.2773 146.199 57.492C146.199 57.7067 146.246 57.884 146.339 58.024C146.433 58.164 146.568 58.2713 146.745 58.346C146.932 58.4113 147.161 58.444 147.431 58.444H149.433ZM150.867 55.56H154.647V56.61H150.867V55.56ZM152.197 55.84H153.317V62H152.197V55.84Z" fill="black"/>
</svg>
