<svg width="57" height="50" viewBox="0 0 57 50" fill="none" xmlns="http://www.w3.org/2000/svg">
<path d="M55.7356 20.9898L32.2488 1.29664C30.1869 -0.432212 26.813 -0.432212 24.7513 1.29664L1.26453 20.9898C-0.797339 22.7186 -0.28294 24.1331 2.40789 24.1331H8.03439C8.03439 24.1331 8.60477 24.1584 8.60477 24.6729C8.60477 29.8628 8.60477 45.4321 8.60477 45.4321C8.60477 47.5936 10.3571 49.3459 12.5186 49.3459H44.4813C46.6431 49.3459 48.3951 47.5937 48.3951 45.4321C48.3951 45.4321 48.3951 29.8336 48.3951 24.6342C48.3951 24.1585 48.9118 24.1332 48.9118 24.1332H54.592C57.283 24.1331 57.7976 22.7186 55.7356 20.9898ZM38.3867 34.7728C36.8036 37.1805 29.9879 42.906 28.5104 42.906C27.0641 42.9059 20.1865 37.1598 18.6134 34.7728C17.8261 33.578 17.2673 32.2591 17.3596 30.5258C17.5242 27.4576 20.0329 24.9236 23.1053 24.9236C26.264 24.9237 28.1036 28.2937 28.5002 28.2939C28.9542 28.2939 30.872 24.9236 33.8951 24.9237C36.9676 24.9236 39.4762 27.4573 39.6405 30.5257C39.7332 32.2591 39.1762 33.5726 38.3867 34.7728Z" fill="#333333"/>
</svg>
