<svg width="49" height="49" viewBox="0 0 49 49" fill="none" xmlns="http://www.w3.org/2000/svg">
<g clip-path="url(#clip0_15515_9)">
<path d="M24.5 0C10.9704 0 0 10.9693 0 24.4989C0 38.0296 10.9704 49 24.5 49C38.0296 49 49 38.0296 49 24.4989C49 10.9693 38.0307 0 24.5 0ZM28.2452 37.8767C28.2452 39.9311 26.563 41.5962 24.5107 41.5962C22.4574 41.5962 20.7762 39.9311 20.7762 37.8767V21.6039C20.7762 19.5506 22.4574 17.8855 24.5107 17.8855C26.563 17.8855 28.2452 19.5495 28.2452 21.6039V37.8767ZM24.5 14.8129C22.2338 14.8129 20.3965 12.9756 20.3965 10.7105C20.3965 8.4433 22.2338 6.60812 24.5 6.60812C26.7651 6.60812 28.6035 8.4433 28.6035 10.7105C28.6035 12.9756 26.7651 14.8129 24.5 14.8129Z" fill="#333333"/>
</g>
<defs>
<clipPath id="clip0_15515_9">
<rect width="49" height="49" fill="white"/>
</clipPath>
</defs>
</svg>
