<svg width="30" height="22" viewBox="0 0 30 22" fill="none" xmlns="http://www.w3.org/2000/svg">
<g filter="url(#filter0_d_15515_274)">
<path d="M4.58523 14V0.909091H9.16193C10.0739 0.909091 10.826 1.06676 11.4183 1.3821C12.0107 1.69318 12.4517 2.11293 12.7415 2.64134C13.0313 3.16548 13.1761 3.74716 13.1761 4.38636C13.1761 4.94886 13.076 5.41335 12.8757 5.77983C12.6797 6.14631 12.4197 6.43608 12.0959 6.64915C11.7763 6.86222 11.429 7.01989 11.054 7.12216V7.25C11.4545 7.27557 11.8572 7.41619 12.2621 7.67188C12.6669 7.92756 13.0057 8.29403 13.2784 8.77131C13.5511 9.24858 13.6875 9.83239 13.6875 10.5227C13.6875 11.179 13.5384 11.7692 13.2401 12.2933C12.9418 12.8175 12.4709 13.233 11.8274 13.5398C11.1839 13.8466 10.3466 14 9.31534 14H4.58523ZM6.17045 12.5938H9.31534C10.3509 12.5938 11.0859 12.3935 11.5206 11.9929C11.9595 11.5881 12.179 11.098 12.179 10.5227C12.179 10.0795 12.0661 9.67045 11.8402 9.29545C11.6143 8.91619 11.2926 8.61364 10.875 8.38778C10.4574 8.15767 9.96307 8.04261 9.39205 8.04261H6.17045V12.5938ZM6.17045 6.66193H9.1108C9.58807 6.66193 10.0185 6.56818 10.402 6.38068C10.7898 6.19318 11.0966 5.92898 11.3224 5.58807C11.5526 5.24716 11.6676 4.84659 11.6676 4.38636C11.6676 3.81108 11.4673 3.32315 11.0668 2.92259C10.6662 2.51776 10.0313 2.31534 9.16193 2.31534H6.17045V6.66193ZM23.9883 14L19.4883 7.99148H17.8775V14H16.2923V0.909091H17.8775V6.58523H18.5678L23.8093 0.909091H25.7014L20.4087 6.66193L25.8803 14H23.9883Z" fill="#333333"/>
<path d="M4.58523 14H3.58523V15H4.58523V14ZM4.58523 0.909091V-0.0909095H3.58523V0.909091H4.58523ZM11.4183 1.3821L10.9484 2.26482L10.9534 2.26744L11.4183 1.3821ZM12.7415 2.64134L11.8647 3.12217L11.8663 3.12516L12.7415 2.64134ZM12.8757 5.77983L11.9982 5.30024L11.9939 5.30818L12.8757 5.77983ZM12.0959 6.64915L11.5463 5.81371L11.5412 5.8171L12.0959 6.64915ZM11.054 7.12216L10.7909 6.1574L10.054 6.35836V7.12216H11.054ZM11.054 7.25H10.054V8.18821L10.9903 8.24797L11.054 7.25ZM12.2621 7.67188L11.7281 8.51736L11.7281 8.51736L12.2621 7.67188ZM13.2401 12.2933L14.1092 12.7879L13.2401 12.2933ZM11.8274 13.5398L11.397 12.6371L11.8274 13.5398ZM6.17045 12.5938H5.17045V13.5938H6.17045V12.5938ZM11.5206 11.9929L12.1983 12.7283L12.1986 12.728L11.5206 11.9929ZM11.8402 9.29545L10.981 9.80711L10.9836 9.81138L11.8402 9.29545ZM10.875 8.38778L10.3924 9.26365L10.3993 9.26739L10.875 8.38778ZM6.17045 8.04261V7.04261H5.17045V8.04261H6.17045ZM6.17045 6.66193H5.17045V7.66193H6.17045V6.66193ZM10.402 6.38068L9.96668 5.48039L9.96278 5.4823L10.402 6.38068ZM11.3224 5.58807L10.4936 5.02857L10.4888 5.03577L11.3224 5.58807ZM11.0668 2.92259L10.3559 3.62595L10.3597 3.62969L11.0668 2.92259ZM6.17045 2.31534V1.31534H5.17045V2.31534H6.17045ZM5.58523 14V0.909091H3.58523V14H5.58523ZM4.58523 1.90909H9.16193V-0.0909095H4.58523V1.90909ZM9.16193 1.90909C9.9661 1.90909 10.5433 2.04913 10.9484 2.26481L11.8883 0.499398C11.1087 0.0843935 10.1816 -0.0909095 9.16193 -0.0909095V1.90909ZM10.9534 2.26744C11.3915 2.49756 11.6797 2.78486 11.8647 3.12217L13.6183 2.1605C13.2237 1.44099 12.6298 0.888806 11.8833 0.496769L10.9534 2.26744ZM11.8663 3.12516C12.0687 3.49125 12.1761 3.90465 12.1761 4.38636H14.1761C14.1761 3.58967 13.9938 2.83972 13.6166 2.15751L11.8663 3.12516ZM12.1761 4.38636C12.1761 4.83702 12.0951 5.12304 11.9982 5.30026L13.7532 6.2594C14.0569 5.70366 14.1761 5.06071 14.1761 4.38636H12.1761ZM11.9939 5.30818C11.8707 5.53851 11.7208 5.69889 11.5463 5.81373L12.6455 7.48456C13.1187 7.17327 13.4887 6.7541 13.7575 6.25148L11.9939 5.30818ZM11.5412 5.8171C11.3121 5.96983 11.0634 6.08306 10.7909 6.1574L11.3171 8.08692C11.7945 7.95671 12.2405 7.75461 12.6506 7.4812L11.5412 5.8171ZM10.054 7.12216V7.25H12.054V7.12216H10.054ZM10.9903 8.24797C11.1943 8.26099 11.4375 8.33386 11.7281 8.51736L12.7961 6.82639C12.277 6.49853 11.7148 6.29014 11.1177 6.25203L10.9903 8.24797ZM11.7281 8.51736C11.9753 8.67353 12.2065 8.91102 12.4102 9.26745L14.1467 8.27517C13.8049 7.67705 13.3585 7.18159 12.7961 6.82639L11.7281 8.51736ZM12.4102 9.26745C12.5771 9.5596 12.6875 9.96253 12.6875 10.5227H14.6875C14.6875 9.70225 14.5252 8.93755 14.1467 8.27517L12.4102 9.26745ZM12.6875 10.5227C12.6875 11.0213 12.576 11.4384 12.3709 11.7987L14.1092 12.7879C14.5007 12.1 14.6875 11.3367 14.6875 10.5227H12.6875ZM12.3709 11.7987C12.1911 12.1147 11.8904 12.4019 11.397 12.6371L12.2578 14.4424C13.0514 14.064 13.6924 13.5202 14.1092 12.7879L12.3709 11.7987ZM11.397 12.6371C10.9342 12.8578 10.2592 13 9.31534 13V15C10.434 15 11.4337 14.8354 12.2578 14.4424L11.397 12.6371ZM9.31534 13H4.58523V15H9.31534V13ZM6.17045 13.5938H9.31534V11.5938H6.17045V13.5938ZM9.31534 13.5938C10.4294 13.5938 11.4825 13.3879 12.1983 12.7283L10.8429 11.2575C10.6894 11.399 10.2723 11.5938 9.31534 11.5938V13.5938ZM12.1986 12.728C12.834 12.1419 13.179 11.389 13.179 10.5227H11.179C11.179 10.807 11.0851 11.0342 10.8426 11.2578L12.1986 12.728ZM13.179 10.5227C13.179 9.90011 13.0177 9.31229 12.6968 8.77953L10.9836 9.81138C11.1144 10.0286 11.179 10.259 11.179 10.5227H13.179ZM12.6994 8.7838C12.3743 8.23784 11.9146 7.81312 11.3507 7.50818L10.3993 9.26739C10.6707 9.41415 10.8544 9.59455 10.981 9.80711L12.6994 8.7838ZM11.3576 7.51195C10.7655 7.18571 10.0986 7.04261 9.39205 7.04261V9.04261C9.82757 9.04261 10.1492 9.12963 10.3924 9.26362L11.3576 7.51195ZM9.39205 7.04261H6.17045V9.04261H9.39205V7.04261ZM5.17045 8.04261V12.5938H7.17045V8.04261H5.17045ZM6.17045 7.66193H9.1108V5.66193H6.17045V7.66193ZM9.1108 7.66193C9.72217 7.66193 10.3055 7.54096 10.8412 7.27907L9.96278 5.4823C9.73142 5.59541 9.45397 5.66193 9.1108 5.66193V7.66193ZM10.8373 7.28097C11.3777 7.01967 11.8257 6.63902 12.1561 6.14036L10.4888 5.03577C10.3674 5.21894 10.2018 5.3667 9.96669 5.4804L10.8373 7.28097ZM12.1513 6.14754C12.506 5.62209 12.6676 5.02136 12.6676 4.38636H10.6676C10.6676 4.67182 10.5991 4.87223 10.4936 5.02859L12.1513 6.14754ZM12.6676 4.38636C12.6676 3.55049 12.3652 2.80683 11.7739 2.21548L10.3597 3.62969C10.5694 3.83948 10.6676 4.07167 10.6676 4.38636H12.6676ZM11.7776 2.21923C11.1103 1.54485 10.1601 1.31534 9.16193 1.31534V3.31534C9.90237 3.31534 10.2221 3.49066 10.3559 3.62594L11.7776 2.21923ZM9.16193 1.31534H6.17045V3.31534H9.16193V1.31534ZM5.17045 2.31534V6.66193H7.17045V2.31534H5.17045ZM23.9883 14L23.1879 14.5995L23.4879 15H23.9883V14ZM19.4883 7.99148L20.2887 7.39202L19.9887 6.99148H19.4883V7.99148ZM17.8775 7.99148V6.99148H16.8775V7.99148H17.8775ZM17.8775 14V15H18.8775V14H17.8775ZM16.2923 14H15.2923V15H16.2923V14ZM16.2923 0.909091V-0.0909095H15.2923V0.909091H16.2923ZM17.8775 0.909091H18.8775V-0.0909095H17.8775V0.909091ZM17.8775 6.58523H16.8775V7.58523H17.8775V6.58523ZM18.5678 6.58523V7.58523H19.0055L19.3025 7.26364L18.5678 6.58523ZM23.8093 0.909091V-0.0909095H23.3716L23.0746 0.230673L23.8093 0.909091ZM25.7014 0.909091L26.4373 1.58615L27.9802 -0.0909095H25.7014V0.909091ZM20.4087 6.66193L19.6728 5.98487L19.1115 6.59503L19.6071 7.25969L20.4087 6.66193ZM25.8803 14V15H27.8734L26.682 13.4022L25.8803 14ZM24.7887 13.4005L20.2887 7.39202L18.6879 8.59093L23.1879 14.5995L24.7887 13.4005ZM19.4883 6.99148H17.8775V8.99148H19.4883V6.99148ZM16.8775 7.99148V14H18.8775V7.99148H16.8775ZM17.8775 13H16.2923V15H17.8775V13ZM17.2923 14V0.909091H15.2923V14H17.2923ZM16.2923 1.90909H17.8775V-0.0909095H16.2923V1.90909ZM16.8775 0.909091V6.58523H18.8775V0.909091H16.8775ZM17.8775 7.58523H18.5678V5.58523H17.8775V7.58523ZM19.3025 7.26364L24.544 1.58751L23.0746 0.230673L17.8331 5.90681L19.3025 7.26364ZM23.8093 1.90909H25.7014V-0.0909095H23.8093V1.90909ZM24.9654 0.232034L19.6728 5.98487L21.1447 7.33899L26.4373 1.58615L24.9654 0.232034ZM19.6071 7.25969L25.0787 14.5978L26.682 13.4022L21.2104 6.06417L19.6071 7.25969ZM25.8803 13H23.9883V15H25.8803V13Z" fill="black"/>
</g>
<defs>
<filter id="filter0_d_15515_274" x="0.585205" y="0.909119" width="29.2952" height="21.0909" filterUnits="userSpaceOnUse" color-interpolation-filters="sRGB">
<feFlood flood-opacity="0" result="BackgroundImageFix"/>
<feColorMatrix in="SourceAlpha" type="matrix" values="0 0 0 0 0 0 0 0 0 0 0 0 0 0 0 0 0 0 127 0" result="hardAlpha"/>
<feOffset dy="4"/>
<feGaussianBlur stdDeviation="2"/>
<feComposite in2="hardAlpha" operator="out"/>
<feColorMatrix type="matrix" values="0 0 0 0 0 0 0 0 0 0 0 0 0 0 0 0 0 0 0.25 0"/>
<feBlend mode="normal" in2="BackgroundImageFix" result="effect1_dropShadow_15515_274"/>
<feBlend mode="normal" in="SourceGraphic" in2="effect1_dropShadow_15515_274" result="shape"/>
</filter>
</defs>
</svg>
