<?xml version="1.0" encoding="utf-8"?>
<svg width="800px" height="800px" viewBox="0 0 90 90" xmlns="http://www.w3.org/2000/svg">
    <defs>
        <style>.cls-1{fill:#D97544;}.cls-2{fill:#ffffff;}.cls-3{fill:#ff8898;}.cls-4{fill:#576065;}</style>
    </defs>
    <title>map-pointer-house</title>
    <g id="map-pointer-house">
        <g id="map-pointer-house-2">
            <g id="fill">
                <path class="cls-1"
                      d="M74.26,31C74.26,49.77,51.75,88.2,45,88.2S15.74,49.77,15.74,31a29.26,29.26,0,0,1,58.52,0Z"/>
                <circle class="cls-2" cx="45" cy="32.2" r="18.78"/>
                <circle class="cls-3" cx="45" cy="32.2" r="12.78"/>
            </g>
            <g id="outline">
                <path class="cls-4"
                      d="M45,90c-8.43,0-31.06-39.82-31.06-59a31.06,31.06,0,0,1,62.12,0C76.06,50.18,53.43,90,45,90ZM45,3.6A27.45,27.45,0,0,0,17.54,31c0,19,22.32,55.38,27.46,55.43S72.46,49.95,72.46,31A27.45,27.45,0,0,0,45,3.6Z"/>
            </g>
        </g>
    </g>
</svg>